<?xml version="1.0" encoding="UTF-8"?>
<!DOCTYPE svg PUBLIC "-//W3C//DTD SVG 1.1//EN" "http://www.w3.org/Graphics/SVG/1.1/DTD/svg11.dtd">
<!-- Creator: CorelDRAW Home & Student X8 -->
<svg xmlns="http://www.w3.org/2000/svg" xml:space="preserve" width="55.18mm" height="52.471mm" version="1.1" style="shape-rendering:geometricPrecision; text-rendering:geometricPrecision; image-rendering:optimizeQuality; fill-rule:evenodd; clip-rule:evenodd"
viewBox="0 0 5518 5247"
 xmlns:xlink="http://www.w3.org/1999/xlink">
 <defs>
  <style type="text/css">
   <![CDATA[
.str0 {stroke:black;stroke-width:7.62}
.fil0 {fill:none;fill-rule:nonzero}
.fil1 {fill:black;fill-rule:nonzero}
   ]]>
  </style>
 </defs>
 <g id="Warstwa_x0020_1">
  <metadata id="CorelCorpID_0Corel-Layer"/>
  <path class="fil0 str0" d="M1518 5247l4000 0m-4000 -1000l4000 0m-4000 -1000l4000 0m-4000 -1000l4000 0m-4000 -1000l4000 0m-4000 4000l0 -4000m1000 4000l0 -4000m1000 4000l0 -4000m1000 4000l0 -4000m1000 4000l0 -4000"/>
  <path class="fil1" d="M3497 9c1,-4 1,-5 1,-6 0,0 0,-3 -4,-3 -2,0 -3,1 -5,3l-19 22c-2,1 -3,3 -3,3 0,0 -1,-1 -3,-3 -4,-6 -19,-25 -52,-25 -72,0 -144,70 -144,142 0,52 38,88 89,88 33,0 59,-17 71,-28 29,-26 34,-54 34,-55 0,-1 0,-3 -4,-3 -4,0 -4,1 -5,3 -15,51 -60,73 -92,73 -31,0 -63,-19 -63,-66 0,-15 4,-64 36,-103 19,-23 50,-41 81,-41 35,0 53,27 53,61 0,11 0,13 0,16 0,3 3,3 4,3 4,0 4,0 6,-6l19 -75zm61 190c-3,11 -4,14 -28,14 -6,0 -9,0 -9,6 0,4 3,4 9,4l106 0c68,0 131,-67 131,-135 0,-44 -27,-81 -76,-81l-109 0c-6,0 -9,0 -9,6 0,4 2,4 9,4 1,0 7,0 12,0 5,1 8,2 8,5 0,2 -1,3 -2,6l-42 171zm69 -170c3,-11 4,-12 17,-12l36 0c33,0 59,18 59,59 0,18 -8,69 -33,100 -14,18 -40,37 -75,37l-38 0c-5,0 -5,0 -7,0 -3,0 -4,-1 -4,-3 0,-1 0,-2 2,-7l43 -174z"/>
  <path class="fil1" d="M46 3318c-16,25 -30,26 -42,27 -2,1 -4,3 -4,6 0,2 1,4 4,4 6,0 21,-1 27,-1 7,0 24,1 31,1 2,0 6,0 6,-5 0,-4 -3,-5 -4,-5 -3,0 -15,-1 -15,-10 0,-4 3,-10 4,-12 8,-14 17,-27 25,-41l83 0c1,7 2,18 3,26 1,12 3,26 3,27 0,5 -5,10 -23,10 -3,0 -7,0 -7,6 0,4 2,4 4,4 6,0 14,0 20,0 7,0 14,-1 19,-1 11,0 11,0 19,1 5,0 12,0 17,0 2,0 6,0 6,-5 0,-5 -3,-5 -7,-5 -19,0 -19,-2 -20,-11l-22 -197c-1,-7 -1,-8 -7,-8 -4,0 -6,2 -8,6l-112 183zm38 -46l64 -104 12 104 -76 0zm200 59c-3,12 -4,14 -27,14 -6,0 -10,0 -10,6 0,4 3,4 9,4l115 0c51,0 89,-37 89,-68 0,-22 -19,-41 -50,-45 36,-7 67,-31 67,-59 0,-25 -23,-44 -61,-44l-108 0c-6,0 -9,0 -9,6 0,4 2,4 9,4 1,0 7,0 12,1 6,0 8,1 8,4 0,2 -1,3 -2,7l-42 170zm49 -92l19 -78c3,-11 4,-12 17,-12l43 0c33,0 36,25 36,33 0,28 -30,57 -66,57l-49 0zm-15 106c-5,0 -5,0 -6,0 -4,0 -5,-1 -5,-3 0,-1 0,-1 2,-7l22 -88 59 0c20,0 40,8 40,37 0,31 -29,61 -67,61l-45 0z"/>
  <path class="fil1" d="M1925 625c-68,6 -69,89 -69,124 0,32 3,71 25,97 11,13 31,22 48,22 30,0 53,-20 64,-47 10,-24 11,-51 11,-76 0,-33 -4,-74 -25,-98 -12,-13 -31,-22 -49,-22 -2,0 -3,0 -5,0zm-40 144c0,-3 0,-6 0,-9l0 -17c0,-17 0,-34 2,-50 1,-14 2,-29 10,-40 7,-12 20,-20 33,-20 42,0 44,51 44,86l0 17c0,9 1,19 1,30 0,45 -6,94 -45,94 -47,0 -42,-69 -45,-91zm216 -144c-68,6 -69,89 -69,124 0,32 3,71 25,97 11,13 30,22 48,22 30,0 53,-20 64,-47 10,-24 11,-51 11,-76 0,-33 -4,-74 -25,-98 -12,-13 -31,-22 -49,-22 -2,0 -3,0 -5,0zm-40 144c0,-3 0,-6 0,-9l0 -17c0,-17 0,-34 2,-50 1,-14 2,-29 9,-40 8,-12 21,-20 34,-20 41,0 44,51 44,86l0 17c0,9 0,19 0,30 0,45 -5,94 -44,94 -47,0 -43,-69 -45,-91z"/>
  <path class="fil1" d="M2925 625c-68,6 -69,89 -69,124 0,32 3,71 25,97 11,13 31,22 48,22 30,0 54,-20 64,-47 10,-24 11,-51 11,-76 0,-33 -4,-74 -25,-98 -12,-13 -31,-22 -49,-22 -2,0 -3,0 -5,0zm-39 144c-1,-3 -1,-6 -1,-9l0 -17c0,-17 0,-34 2,-50 1,-14 2,-29 10,-40 7,-12 20,-20 34,-20 41,0 43,51 43,86l0 17c0,9 1,19 1,30 0,45 -6,94 -45,94 -47,0 -42,-69 -44,-91zm164 -121l0 11c15,0 32,-2 45,-9l0 183c0,14 -13,16 -27,16 -6,0 -12,0 -17,0l0 11 115 0 0 -11c-6,0 -12,0 -18,0 -14,0 -26,-2 -26,-16l0 -202c0,-3 -1,-6 -5,-6 -5,0 -11,7 -15,10 -15,10 -34,13 -52,13z"/>
  <path class="fil1" d="M3874 648l0 11c15,0 32,-2 46,-9l0 183c0,14 -14,16 -27,16 -6,0 -12,0 -17,0l0 11 114 0 0 -11c-6,0 -12,0 -18,0 -14,0 -26,-2 -26,-16l0 -202c0,-3 -1,-6 -5,-6 -5,0 -11,7 -15,10 -15,10 -34,13 -52,13zm176 0l0 11c15,0 32,-2 45,-9l0 183c0,14 -13,16 -27,16 -6,0 -12,0 -17,0l0 11 115 0 0 -11c-6,0 -12,0 -18,0 -14,0 -26,-2 -26,-16l0 -202c0,-3 -1,-6 -5,-6 -5,0 -11,7 -15,10 -15,10 -34,13 -52,13z"/>
  <path class="fil1" d="M4874 648l0 11c15,0 32,-2 46,-9l0 183c0,14 -14,16 -27,16 -6,0 -12,0 -17,0l0 11 114 0 0 -11c-6,0 -12,0 -18,0 -14,0 -26,-2 -26,-16l0 -202c0,-3 -1,-6 -5,-6 -5,0 -11,7 -15,10 -15,10 -34,13 -52,13zm227 -23c-68,6 -69,89 -69,124 0,32 3,71 25,97 11,13 30,22 48,22 30,0 53,-20 64,-47 10,-24 11,-51 11,-76 0,-33 -4,-74 -25,-98 -12,-13 -31,-22 -49,-22 -2,0 -3,0 -5,0zm-40 144c0,-3 0,-6 0,-9l0 -17c0,-17 0,-34 2,-50 1,-14 2,-29 9,-40 8,-12 20,-20 34,-20 41,0 44,51 44,86l0 17c0,9 0,19 0,30 0,45 -5,94 -44,94 -47,0 -43,-69 -45,-91z"/>
  <path class="fil1" d="M925 1625c-68,6 -69,89 -69,124 0,32 3,71 25,97 11,13 31,22 48,22 30,0 54,-20 64,-47 10,-24 11,-51 11,-76 0,-33 -4,-74 -25,-98 -12,-13 -31,-22 -49,-22 -2,0 -3,0 -5,0zm-39 144c-1,-3 -1,-6 -1,-9l0 -17c0,-17 0,-34 2,-50 1,-14 2,-29 10,-40 7,-12 20,-20 34,-20 41,0 43,51 43,86l0 17c0,9 1,19 1,30 0,45 -6,93 -45,93 -47,0 -42,-68 -44,-90zm215 -144c-68,6 -69,89 -69,124 0,32 3,71 25,97 11,13 30,22 48,22 30,0 53,-20 64,-47 10,-24 11,-51 11,-76 0,-33 -4,-74 -25,-98 -12,-13 -31,-22 -49,-22 -2,0 -3,0 -5,0zm-40 144c0,-3 0,-6 0,-9l0 -17c0,-17 0,-34 2,-50 1,-14 2,-29 9,-40 8,-12 21,-20 34,-20 41,0 44,51 44,86l0 17c0,9 1,19 1,30 0,45 -6,93 -45,93 -47,0 -43,-68 -45,-90z"/>
  <path class="fil1" d="M925 2625c-68,6 -69,89 -69,124 0,32 3,71 25,97 11,13 31,22 48,22 30,0 54,-20 64,-47 10,-24 11,-51 11,-76 0,-33 -4,-74 -25,-98 -12,-13 -31,-22 -49,-22 -2,0 -3,0 -5,0zm-39 144c-1,-3 -1,-6 -1,-9l0 -17c0,-17 0,-34 2,-50 1,-14 2,-29 10,-40 7,-12 20,-20 34,-20 41,0 43,51 43,86l0 17c0,9 1,19 1,30 0,45 -6,94 -45,94 -47,0 -42,-69 -44,-91zm164 -121l0 11c15,0 32,-2 45,-9l0 183c0,14 -13,16 -27,16 -6,0 -12,0 -17,0l0 11 115 0 0 -11c-6,0 -12,0 -18,0 -14,0 -26,-2 -26,-15l0 -203c0,-3 -1,-6 -5,-6 -5,0 -11,7 -15,10 -15,10 -34,13 -52,13z"/>
  <path class="fil1" d="M874 3648l0 11c15,0 32,-2 46,-9l0 183c0,14 -14,16 -27,16 -6,0 -12,0 -17,0l0 10 114 0 0 -10c-6,0 -12,0 -18,0 -14,0 -26,-2 -26,-16l0 -202c0,-3 -1,-6 -5,-6 -5,0 -11,7 -15,10 -15,10 -34,13 -52,13zm176 0l0 11c15,0 32,-2 45,-9l0 183c0,14 -13,16 -27,16 -6,0 -12,0 -17,0l0 10 115 0 0 -10c-6,0 -12,0 -18,0 -14,0 -26,-2 -26,-16l0 -202c0,-3 -1,-6 -5,-6 -5,0 -11,7 -15,10 -15,10 -34,13 -52,13z"/>
  <path class="fil1" d="M874 4648l0 11c15,0 32,-2 46,-9l0 183c0,14 -14,16 -27,16 -6,0 -12,0 -17,0l0 11 114 0 0 -11c-6,0 -12,0 -18,0 -14,0 -26,-2 -26,-15l0 -203c0,-3 -1,-6 -5,-6 -5,0 -11,7 -15,10 -15,10 -34,13 -52,13zm227 -23c-68,6 -69,89 -69,124 0,32 3,71 25,97 11,13 30,22 48,22 30,0 53,-20 64,-47 10,-24 11,-51 11,-76 0,-33 -4,-74 -25,-98 -12,-13 -31,-22 -49,-22 -2,0 -3,0 -5,0zm-40 144c0,-3 0,-6 0,-9l0 -17c0,-17 0,-34 2,-50 1,-14 2,-29 9,-40 8,-12 21,-20 34,-20 41,0 44,51 44,86l0 17c0,9 1,19 1,30 0,45 -6,94 -45,94 -47,0 -43,-69 -45,-91z"/>
 </g>
</svg>
