<?xml version="1.0" encoding="UTF-8"?>
<!DOCTYPE svg PUBLIC "-//W3C//DTD SVG 1.1//EN" "http://www.w3.org/Graphics/SVG/1.1/DTD/svg11.dtd">
<!-- Creator: CorelDRAW Home & Student X8 -->
<svg xmlns="http://www.w3.org/2000/svg" xml:space="preserve" width="52.563mm" height="32.4708mm" version="1.1" style="shape-rendering:geometricPrecision; text-rendering:geometricPrecision; image-rendering:optimizeQuality; fill-rule:evenodd; clip-rule:evenodd"
viewBox="0 0 5256 3247"
 xmlns:xlink="http://www.w3.org/1999/xlink">
 <defs>
  <style type="text/css">
   <![CDATA[
    .str0 {stroke:black;stroke-width:7.62}
    .fil0 {fill:none;fill-rule:nonzero}
    .fil1 {fill:black;fill-rule:nonzero}
   ]]>
  </style>
 </defs>
 <g id="Warstwa_x0020_1">
  <metadata id="CorelCorpID_0Corel-Layer"/>
  <path class="fil0 str0" d="M1257 3247l4000 0m-4000 -1000l4000 0m-4000 -1000l4000 0m-4000 2000l0 -2000m1000 2000l0 -2000m1000 2000l0 -2000m1000 2000l0 -2000m999 2000l0 -2000"/>
  <path class="fil1" d="M3050 199c-3,11 -3,14 -27,14 -6,0 -10,0 -10,6 0,4 3,4 9,4l115 0c52,0 89,-37 89,-68 0,-22 -18,-41 -50,-45 36,-7 67,-31 67,-59 0,-25 -23,-44 -60,-44l-109 0c-5,0 -9,0 -9,6 0,4 3,4 9,4 2,0 7,0 12,0 6,1 8,2 8,5 0,2 0,3 -1,6l-43 171zm49 -92l20 -78c2,-11 3,-12 16,-12l43 0c33,0 36,25 36,33 0,28 -30,57 -65,57l-50 0zm-15 106c-4,0 -5,0 -6,0 -3,0 -4,-1 -4,-3 0,-1 0,-2 1,-7l22 -89 60 0c19,0 39,9 39,38 0,31 -29,61 -67,61l-45 0zm421 -204c1,-4 1,-5 1,-6 0,0 0,-3 -4,-3 -2,0 -3,1 -5,3l-19 22c-1,1 -3,3 -3,3 0,0 -1,-1 -2,-3 -5,-6 -19,-25 -52,-25 -73,0 -145,70 -145,142 0,52 38,88 89,88 33,0 59,-17 71,-28 29,-26 34,-54 34,-55 0,-1 0,-3 -4,-3 -4,0 -4,1 -4,3 -16,51 -61,73 -93,73 -31,0 -63,-19 -63,-66 0,-15 5,-64 37,-103 19,-23 50,-41 80,-41 35,0 54,27 54,61 0,11 -1,13 -1,16 0,3 4,3 5,3 4,0 4,0 5,-6l19 -75z"/>
  <path class="fil1" d="M46 2318c-15,25 -29,26 -42,27 -2,1 -4,3 -4,6 0,2 2,4 5,4 6,0 21,-1 27,-1 7,0 24,1 31,1 2,0 6,0 6,-6 0,-3 -4,-4 -5,-4 -3,0 -15,-1 -15,-10 0,-5 4,-11 5,-12 8,-14 16,-27 25,-41l82 0c1,7 2,18 3,26 1,12 3,26 3,27 0,5 -4,10 -23,10 -3,0 -7,0 -7,6 0,4 3,4 5,4 6,0 13,0 20,0 6,0 14,-1 19,-1 10,0 11,0 18,1 5,0 13,0 18,0 2,0 6,0 6,-6 0,-4 -4,-4 -8,-4 -18,0 -19,-2 -20,-11l-22 -197c-1,-7 -1,-8 -6,-8 -5,0 -7,2 -9,6l-112 183zm39 -46l63 -104 12 104 -75 0z"/>
  <path class="fil1" d="M1664 625c-68,6 -69,89 -69,124 0,32 2,71 25,97 11,13 30,22 48,22 30,0 53,-20 64,-47 10,-24 11,-51 11,-76 0,-33 -4,-74 -25,-98 -12,-13 -31,-22 -49,-22 -2,0 -3,0 -5,0zm-40 144c0,-3 0,-6 0,-9l0 -17c0,-17 0,-34 2,-50 1,-14 2,-29 9,-40 8,-12 20,-20 34,-20 41,0 44,51 44,86l0 17c0,9 0,19 0,30 0,45 -6,93 -44,93 -47,0 -43,-68 -45,-90zm216 -144c-68,6 -70,89 -70,124 0,32 3,71 25,97 12,13 31,22 48,22 31,0 54,-20 65,-47 9,-24 10,-51 10,-76 0,-33 -3,-74 -25,-98 -12,-13 -31,-22 -49,-22 -1,0 -3,0 -4,0zm-40 144c0,-3 0,-6 0,-9l0 -17c0,-17 0,-34 1,-50 1,-14 3,-29 10,-40 8,-12 20,-20 34,-20 41,0 44,51 44,86l0 17c0,9 0,19 0,30 0,45 -6,93 -45,93 -47,0 -42,-68 -44,-90z"/>
  <path class="fil1" d="M2664 625c-68,6 -69,89 -69,124 0,32 2,71 25,97 11,13 30,22 48,22 30,0 53,-20 64,-47 10,-24 11,-51 11,-76 0,-33 -4,-74 -25,-98 -12,-13 -31,-22 -49,-22 -2,0 -3,0 -5,0zm-40 144c0,-3 0,-6 0,-9l0 -17c0,-17 0,-34 2,-50 1,-14 2,-29 9,-40 8,-12 20,-20 34,-20 41,0 44,51 44,86l0 17c0,9 0,19 0,30 0,45 -6,93 -44,93 -47,0 -43,-68 -45,-90zm164 -121l0 11c15,0 32,-2 46,-9l0 183c0,14 -13,16 -27,16 -6,0 -12,0 -17,0l0 10 114 0 0 -10c-6,0 -12,0 -17,0 -14,0 -27,-2 -27,-16l0 -202c0,-3 -1,-6 -5,-6 -5,0 -11,7 -14,10 -16,10 -35,13 -53,13z"/>
  <path class="fil1" d="M3613 648l0 11c15,0 32,-2 45,-9l0 183c0,14 -13,16 -27,16 -6,0 -12,0 -17,0l0 10 115 0 0 -10c-6,0 -12,0 -18,0 -14,0 -26,-2 -26,-16l0 -202c0,-3 -1,-6 -5,-6 -5,0 -11,7 -15,10 -16,10 -35,13 -52,13zm175 0l0 11c15,0 32,-2 46,-9l0 183c0,14 -13,16 -27,16 -6,0 -12,0 -17,0l0 10 114 0 0 -10c-6,0 -12,0 -17,0 -14,0 -27,-2 -27,-16l0 -202c0,-3 -1,-6 -5,-6 -5,0 -11,7 -14,10 -16,10 -35,13 -53,13z"/>
  <path class="fil1" d="M4613 648l0 11c15,0 31,-2 45,-9l0 183c0,14 -13,16 -27,16 -6,0 -12,0 -17,0l0 10 114 0 0 -10c-5,0 -11,0 -17,0 -14,0 -26,-2 -26,-16l0 -202c0,-3 -1,-6 -5,-6 -5,0 -11,7 -15,10 -16,10 -35,13 -52,13zm227 -23c-68,6 -70,89 -70,124 0,32 3,71 25,97 12,13 31,22 48,22 31,0 54,-20 65,-47 9,-24 10,-51 10,-76 0,-33 -3,-74 -25,-98 -12,-13 -31,-22 -49,-22 -1,0 -3,0 -4,0zm-40 144c-1,-3 -1,-6 -1,-9l0 -17c0,-17 0,-34 2,-50 1,-14 3,-29 10,-40 8,-12 20,-20 34,-20 41,0 44,51 44,86l0 17c0,9 0,19 0,30 0,45 -6,93 -45,93 -47,0 -42,-68 -44,-90z"/>
  <path class="fil1" d="M752 1625c-68,6 -70,89 -70,124 0,32 3,71 25,97 12,13 31,22 49,22 30,0 53,-20 64,-47 9,-24 10,-51 10,-76 0,-33 -3,-74 -25,-98 -11,-14 -30,-22 -48,-22 -2,0 -4,0 -5,0zm-40 144c0,-3 0,-6 0,-9l0 -17c0,-17 0,-34 1,-50 1,-14 3,-29 10,-40 8,-12 20,-20 34,-20 41,0 44,51 44,86l0 17c0,9 0,19 0,30 0,45 -6,93 -44,93 -47,0 -43,-68 -45,-90z"/>
  <path class="fil1" d="M700 2648l0 11c15,0 32,-2 46,-9l0 183c0,14 -13,16 -27,16 -6,0 -12,0 -17,0l0 10 114 0 0 -10c-6,0 -12,0 -17,0 -14,0 -27,-2 -27,-16l0 -202c0,-3 -1,-6 -5,-6 -4,0 -10,7 -14,10 -16,10 -35,13 -53,13z"/>
 </g>
</svg>
