<?xml version="1.0" encoding="UTF-8"?>
<!DOCTYPE svg PUBLIC "-//W3C//DTD SVG 1.1//EN" "http://www.w3.org/Graphics/SVG/1.1/DTD/svg11.dtd">
<!-- Creator: CorelDRAW Home & Student X8 -->
<svg xmlns="http://www.w3.org/2000/svg" xml:space="preserve" width="52.572mm" height="32.4738mm" version="1.1" style="shape-rendering:geometricPrecision; text-rendering:geometricPrecision; image-rendering:optimizeQuality; fill-rule:evenodd; clip-rule:evenodd"
viewBox="0 0 5257 3247"
 xmlns:xlink="http://www.w3.org/1999/xlink">
 <defs>
  <style type="text/css">
   <![CDATA[
    .str0 {stroke:black;stroke-width:7.62}
    .fil0 {fill:none;fill-rule:nonzero}
    .fil1 {fill:black;fill-rule:nonzero}
   ]]>
  </style>
 </defs>
 <g id="Warstwa_x0020_1">
  <metadata id="CorelCorpID_0Corel-Layer"/>
  <path class="fil0 str0" d="M1258 3247l4000 0m-4000 -1000l4000 0m-4000 -999l4000 0m-4000 1999l0 -2000m1000 2000l0 -2000m1000 2000l0 -2000m1000 2000l0 -2000m999 2000l0 -2000"/>
  <path class="fil1" d="M3038 7l0 10c4,0 8,-1 12,-1 11,0 20,2 20,15l0 168c0,14 -11,14 -23,14l-9 0 0 10 120 0c17,0 32,-2 47,-10 18,-9 32,-27 32,-48 0,-34 -34,-51 -63,-55 6,-2 12,-3 17,-5 19,-8 37,-23 37,-45 0,-21 -17,-37 -34,-45 -16,-7 -32,-8 -49,-8l-107 0zm59 107l43 0c5,0 10,0 14,0 32,0 52,24 52,50 0,31 -26,49 -56,49l-41 0c-9,0 -12,-3 -12,-12l0 -87zm0 -7l0 -79c0,-8 3,-11 12,-11l41 0c21,0 47,10 47,44 0,28 -27,46 -52,46 -5,0 -8,0 -12,0l-36 0zm349 -79c-8,-15 -34,-27 -55,-28l-3 0c-63,0 -115,52 -115,115l0 5c4,62 53,110 113,110 44,0 86,-35 86,-81l0 -2c-1,-2 -3,-4 -5,-4 -3,0 -4,2 -4,5l0 3c-3,32 -26,69 -73,69 -25,0 -49,-13 -64,-32 -16,-21 -20,-50 -20,-75 0,-31 8,-62 32,-84 13,-12 32,-19 51,-19 41,0 66,36 72,71 1,4 0,10 5,10 5,0 6,-3 6,-6l0 -70c0,-2 0,-5 0,-8 0,-3 0,-7 -4,-7 -6,0 -14,19 -22,28z"/>
  <path class="fil1" d="M0 2346l0 10 20 -1 48 0 0 -9c-9,0 -23,-4 -23,-16 0,-4 2,-8 3,-12 6,-14 10,-34 16,-34l76 0c5,0 9,17 12,26 3,8 9,21 9,27 0,9 -17,9 -26,9l0 10 87 0 0 -10 -9 0c-7,0 -14,0 -18,-4 -4,-4 -5,-10 -7,-15 -23,-61 -44,-123 -67,-184l-2 -7c-2,-4 -3,-6 -8,-6 -7,0 -8,7 -10,12 -19,54 -38,108 -58,162l-6 16c-6,20 -19,26 -37,26zm65 -72l37 -104 37 104 -74 0z"/>
  <path class="fil1" d="M1665 626c-68,6 -69,89 -69,123 0,33 2,71 24,97 12,13 31,22 49,22 30,0 53,-19 64,-47 9,-24 10,-50 10,-76 0,-33 -3,-73 -24,-97 -12,-14 -31,-23 -49,-23 -2,0 -3,1 -5,1zm-40 143c0,-3 0,-6 0,-9l0 -17c0,-17 0,-33 1,-50 2,-14 3,-28 10,-40 8,-11 20,-20 34,-20 41,0 44,52 44,87l0 16c0,10 0,20 0,30 0,45 -6,94 -44,94 -47,0 -43,-68 -45,-91zm215 -143c-67,6 -69,89 -69,123 0,33 3,71 25,97 11,13 31,22 48,22 31,0 54,-19 65,-47 9,-24 10,-50 10,-76 0,-33 -3,-73 -25,-97 -12,-14 -31,-23 -49,-23 -1,0 -3,1 -5,1zm-39 143c-1,-3 -1,-6 -1,-9l0 -17c0,-17 0,-33 2,-50 1,-14 3,-28 10,-40 8,-11 20,-20 34,-20 41,0 44,52 44,87l0 16c0,10 0,20 0,30 0,45 -6,94 -45,94 -47,0 -42,-68 -44,-91z"/>
  <path class="fil1" d="M2665 626c-68,6 -69,89 -69,123 0,33 2,71 24,97 12,13 31,22 49,22 30,0 53,-19 64,-47 9,-24 10,-50 10,-76 0,-33 -3,-73 -24,-97 -12,-14 -31,-23 -49,-23 -2,0 -3,1 -5,1zm-40 143c0,-3 0,-6 0,-9l0 -17c0,-17 0,-33 1,-50 2,-14 3,-28 10,-40 8,-11 20,-20 34,-20 41,0 44,52 44,87l0 16c0,10 0,20 0,30 0,45 -6,94 -44,94 -47,0 -43,-68 -45,-91zm164 -121l0 11c15,0 32,-2 46,-9l0 183c0,14 -13,16 -27,16 -6,0 -12,0 -17,0l0 11 114 0 0 -11c-6,0 -12,0 -17,0 -14,0 -27,-2 -27,-15l0 -203c0,-3 -1,-5 -5,-5 -5,0 -11,6 -14,9 -16,10 -35,13 -53,13z"/>
  <path class="fil1" d="M3613 648l0 11c16,0 32,-2 46,-9l0 183c0,14 -13,16 -27,16 -6,0 -12,0 -17,0l0 11 114 0 0 -11c-6,0 -12,0 -17,0 -14,0 -27,-2 -27,-15l0 -203c0,-3 -1,-5 -4,-5 -5,0 -11,6 -15,9 -16,10 -35,13 -53,13zm176 0l0 11c15,0 32,-2 46,-9l0 183c0,14 -13,16 -27,16 -6,0 -12,0 -17,0l0 11 114 0 0 -11c-6,0 -12,0 -17,0 -14,0 -27,-2 -27,-15l0 -203c0,-3 -1,-5 -5,-5 -5,0 -11,6 -14,9 -16,10 -35,13 -53,13z"/>
  <path class="fil1" d="M4613 648l0 11c16,0 32,-2 46,-9l0 183c0,14 -13,16 -27,16 -6,0 -12,0 -17,0l0 11 114 0 0 -11c-6,0 -12,0 -17,0 -14,0 -26,-2 -26,-15l0 -203c0,-3 -2,-5 -5,-5 -5,0 -11,6 -15,9 -16,10 -35,13 -53,13zm228 -22c-68,6 -70,89 -70,123 0,33 3,71 25,97 11,13 31,22 48,22 31,0 54,-19 65,-47 9,-24 10,-50 10,-76 0,-33 -3,-73 -25,-97 -12,-14 -31,-23 -49,-23 -1,0 -3,1 -4,1zm-40 143c-1,-3 -1,-6 -1,-9l0 -17c0,-17 0,-33 2,-50 1,-14 3,-28 10,-40 8,-11 20,-20 34,-20 41,0 44,52 44,87l0 16c0,10 0,20 0,30 0,45 -6,94 -45,94 -47,0 -42,-68 -44,-91z"/>
  <path class="fil1" d="M753 1626c-68,6 -70,89 -70,123 0,33 3,71 25,97 12,13 31,22 48,22 31,0 54,-19 65,-47 9,-24 10,-50 10,-76 0,-33 -3,-73 -25,-97 -12,-14 -31,-23 -48,-23 -2,0 -4,1 -5,1zm-40 143c0,-3 0,-6 0,-9l0 -17c0,-17 0,-33 1,-50 1,-14 3,-28 10,-40 8,-11 20,-20 34,-20 41,0 44,52 44,87l0 16c0,10 0,20 0,30 0,45 -6,94 -44,94 -48,0 -43,-68 -45,-91z"/>
  <path class="fil1" d="M701 2648l0 11c15,0 32,-2 46,-9l0 183c0,14 -13,16 -27,16 -6,0 -12,0 -17,0l0 11 114 0 0 -11c-6,0 -12,0 -17,0 -14,0 -27,-2 -27,-15l0 -203c0,-3 -1,-5 -5,-5 -4,0 -10,6 -14,9 -16,10 -35,13 -53,13z"/>
  <path class="fil1" d="M1701 1648l0 11c15,0 32,-2 46,-9l0 183c0,14 -13,16 -27,16 -6,0 -12,0 -17,0l0 11 114 0 0 -11c-6,0 -12,0 -17,0 -14,0 -27,-2 -27,-15l0 -203c0,-3 -1,-5 -5,-5 -5,0 -10,6 -14,9 -16,10 -35,13 -53,13z"/>
  <path class="fil1" d="M2753 1626c-68,6 -70,89 -70,123 0,33 3,71 25,97 12,13 31,22 48,22 31,0 54,-19 65,-47 9,-24 10,-50 10,-76 0,-33 -3,-73 -25,-97 -12,-14 -31,-23 -48,-23 -2,0 -4,1 -5,1zm-40 143c0,-3 0,-6 0,-9l0 -17c0,-17 0,-33 1,-50 1,-14 3,-28 10,-40 8,-11 20,-20 34,-20 41,0 44,52 44,87l0 16c0,10 0,20 0,30 0,45 -6,94 -44,94 -48,0 -43,-68 -45,-91z"/>
  <path class="fil1" d="M4753 1626c-68,6 -70,89 -70,123 0,33 3,71 25,97 12,13 31,22 48,22 31,0 54,-19 65,-47 9,-24 10,-50 10,-76 0,-33 -3,-73 -25,-97 -12,-14 -31,-23 -48,-23 -2,0 -4,1 -5,1zm-40 143c0,-3 0,-6 0,-9l0 -17c0,-17 0,-33 1,-50 1,-14 3,-28 10,-40 8,-11 20,-20 34,-20 41,0 44,52 44,87l0 16c0,10 0,20 0,30 0,45 -6,94 -44,94 -48,0 -43,-68 -45,-91z"/>
  <path class="fil1" d="M3753 1626c-68,6 -70,89 -70,123 0,33 3,71 25,97 12,13 31,22 48,22 31,0 54,-19 65,-47 9,-24 10,-50 10,-76 0,-33 -3,-73 -25,-97 -12,-14 -31,-23 -48,-23 -2,0 -4,1 -5,1zm-40 143c0,-3 0,-6 0,-9l0 -17c0,-17 0,-33 1,-50 1,-14 3,-28 10,-40 8,-11 20,-20 34,-20 41,0 44,52 44,87l0 16c0,10 0,20 0,30 0,45 -6,94 -44,94 -48,0 -43,-68 -45,-91z"/>
  <path class="fil1" d="M1753 2626c-68,6 -70,89 -70,123 0,33 3,71 25,97 12,13 31,22 48,22 31,0 54,-19 65,-47 9,-24 10,-50 10,-76 0,-33 -3,-73 -25,-97 -12,-14 -31,-23 -48,-23 -2,0 -4,1 -5,1zm-40 143c0,-3 0,-6 0,-9l0 -17c0,-17 0,-33 1,-50 1,-13 3,-28 10,-40 8,-11 20,-20 34,-20 41,0 44,52 44,87l0 16c0,10 0,20 0,30 0,45 -6,94 -44,94 -48,0 -43,-68 -45,-91z"/>
  <path class="fil1" d="M2701 2648l0 11c15,0 32,-2 46,-9l0 183c0,14 -13,16 -27,16 -6,0 -12,0 -17,0l0 11 114 0 0 -11c-6,0 -12,0 -17,0 -14,0 -27,-2 -27,-15l0 -203c0,-3 -1,-5 -5,-5 -4,0 -10,6 -14,9 -16,10 -35,13 -53,13z"/>
  <path class="fil1" d="M4753 2626c-68,6 -70,89 -70,123 0,33 3,71 25,97 12,13 31,22 48,22 31,0 54,-19 65,-47 9,-24 10,-50 10,-76 0,-33 -3,-73 -25,-97 -12,-14 -31,-23 -48,-23 -2,0 -4,1 -5,1zm-40 143c0,-3 0,-6 0,-9l0 -17c0,-17 0,-33 1,-50 1,-13 3,-28 10,-40 8,-11 20,-20 34,-20 41,0 44,52 44,87l0 16c0,10 0,20 0,30 0,45 -6,94 -44,94 -48,0 -43,-68 -45,-91z"/>
  <path class="fil1" d="M3753 2626c-68,6 -70,89 -70,123 0,33 3,71 25,97 12,13 31,22 48,22 31,0 54,-19 65,-47 9,-24 10,-50 10,-76 0,-33 -3,-73 -25,-97 -12,-14 -31,-23 -48,-23 -2,0 -4,1 -5,1zm-40 143c0,-3 0,-6 0,-9l0 -17c0,-17 0,-33 1,-50 1,-13 3,-28 10,-40 8,-11 20,-20 34,-20 41,0 44,52 44,87l0 16c0,10 0,20 0,30 0,45 -6,94 -44,94 -48,0 -43,-68 -45,-91z"/>
 </g>
</svg>
