<?xml version="1.0" encoding="UTF-8"?>
<!DOCTYPE svg PUBLIC "-//W3C//DTD SVG 1.1//EN" "http://www.w3.org/Graphics/SVG/1.1/DTD/svg11.dtd">
<!-- Creator: CorelDRAW Home & Student X8 -->
<svg xmlns="http://www.w3.org/2000/svg" xml:space="preserve" width="32.562mm" height="32.402mm" version="1.1" style="shape-rendering:geometricPrecision; text-rendering:geometricPrecision; image-rendering:optimizeQuality; fill-rule:evenodd; clip-rule:evenodd"
viewBox="0 0 3256 3240"
 xmlns:xlink="http://www.w3.org/1999/xlink">
 <defs>
  <style type="text/css">
   <![CDATA[
.str0 {stroke:black;stroke-width:7.62}
.fil0 {fill:none;fill-rule:nonzero}
.fil1 {fill:black;fill-rule:nonzero}
   ]]>
  </style>
 </defs>
 <g id="Warstwa_x0020_1">
  <metadata id="CorelCorpID_0Corel-Layer"/>
  <path class="fil0 str0" d="M1257 3240l2000 0m-2000 -1000l2000 0m-2000 -999l2000 0m-2000 1999l0 -2000m1000 2000l0 -2000m999 2000l0 -2000"/>
  <path class="fil1" d="M2177 192c-3,11 -3,14 -27,14 -6,0 -10,0 -10,6 0,4 4,4 9,4l115 0c52,0 89,-37 89,-68 0,-22 -18,-41 -50,-45 36,-7 67,-31 67,-59 0,-25 -23,-44 -60,-44l-108 0c-6,0 -10,0 -10,6 0,4 3,4 10,4 1,0 6,0 12,0 5,1 7,2 7,5 0,2 0,3 -1,7l-43 170zm50 -92l19 -78c3,-11 3,-12 17,-12l42 0c33,0 36,25 36,33 0,28 -29,57 -65,57l-49 0zm-16 106c-4,0 -5,0 -6,0 -3,0 -4,-1 -4,-3 0,-1 0,-1 1,-7l22 -88 60 0c19,0 39,8 39,37 0,31 -28,61 -66,61l-46 0z"/>
  <path class="fil1" d="M46 2311c-15,26 -29,27 -42,27 -2,1 -4,3 -4,6 0,2 2,4 5,4 6,0 21,-1 27,-1 7,0 24,1 31,1 2,0 6,0 6,-5 0,-4 -4,-5 -5,-5 -3,0 -15,0 -15,-10 0,-4 4,-10 4,-12 9,-14 17,-27 25,-41l83 0c1,7 2,18 3,26 1,12 3,26 3,27 0,5 -4,10 -23,10 -3,0 -7,0 -7,6 0,4 2,4 5,4 6,0 13,0 20,0 6,0 14,-1 19,-1 10,0 11,0 18,1 5,0 13,0 18,0 2,0 6,0 6,-5 0,-5 -4,-5 -8,-5 -19,0 -19,-2 -20,-11l-22 -197c-1,-7 -1,-8 -6,-8 -5,0 -7,2 -9,6l-112 183zm38 -46l64 -104 12 104 -76 0z"/>
  <path class="fil1" d="M1752 619c-68,6 -70,88 -70,123 0,33 3,71 25,97 12,13 31,22 48,22 31,0 54,-20 65,-47 9,-24 10,-51 10,-76 0,-33 -3,-73 -25,-98 -12,-13 -31,-22 -48,-22 -2,0 -4,1 -5,1zm-40 143c0,-3 0,-6 0,-9l0 -17c0,-17 0,-33 1,-50 1,-14 3,-28 10,-40 8,-12 20,-20 34,-20 41,0 44,52 44,86l0 17c0,9 0,20 0,30 0,45 -6,94 -44,94 -48,0 -43,-69 -45,-91z"/>
  <path class="fil1" d="M2700 641l0 11c15,0 32,-2 46,-9l0 183c0,14 -13,16 -27,16 -6,0 -12,0 -17,0l0 11 114 0 0 -11c-6,0 -12,0 -17,0 -14,0 -27,-2 -27,-15l0 -203c0,-3 -1,-5 -5,-5 -5,0 -10,6 -14,9 -16,10 -35,13 -53,13z"/>
  <path class="fil1" d="M752 1619c-68,5 -70,88 -70,123 0,33 3,71 25,97 12,13 31,22 48,22 31,0 54,-20 65,-47 9,-24 10,-51 10,-76 0,-33 -3,-73 -25,-98 -12,-13 -31,-22 -48,-22 -2,0 -4,1 -5,1zm-40 143c0,-3 0,-6 0,-9l0 -17c0,-17 0,-33 1,-50 1,-14 3,-28 10,-40 8,-12 20,-20 34,-20 41,0 44,52 44,86l0 17c0,9 0,20 0,30 0,45 -6,94 -44,94 -48,0 -43,-69 -45,-91z"/>
  <path class="fil1" d="M700 2641l0 11c15,0 32,-2 46,-9l0 183c0,14 -13,16 -27,16 -6,0 -12,0 -17,0l0 11 114 0 0 -11c-6,0 -12,0 -17,0 -14,0 -27,-2 -27,-15l0 -203c0,-3 -1,-5 -5,-5 -4,0 -10,6 -14,9 -16,10 -35,13 -53,13z"/>
 </g>
</svg>
